<svg xmlns="http://www.w3.org/2000/svg" width="22.226" height="29.319" viewBox="0 0 22.226 29.319">
  <g id="Groupe_1" data-name="Groupe 1" transform="translate(-1006.65 -79.446)">
    <path id="Rectangle_2" data-name="Rectangle 2" d="M4.08-1H16.146a5.086,5.086,0,0,1,5.08,5.08V14.966a5.086,5.086,0,0,1-5.08,5.08H4.08A5.086,5.086,0,0,1-1,14.966V4.08A5.086,5.086,0,0,1,4.08-1ZM16.146,18.045a3.083,3.083,0,0,0,3.08-3.08V4.08A3.083,3.083,0,0,0,16.146,1H4.08A3.083,3.083,0,0,0,1,4.08V14.966a3.083,3.083,0,0,0,3.08,3.08Z" transform="translate(1007.65 88.719)" fill="#133483"/>
    <path id="Tracé_1" data-name="Tracé 1" d="M1030.654,91.843a1,1,0,0,1-1-1V85.024a3.9,3.9,0,0,0-.927-2.578,2.758,2.758,0,0,0-2.078-1,3.332,3.332,0,0,0-3,3.578v5.819a1,1,0,0,1-2,0V85.024a5.32,5.32,0,0,1,5-5.578,4.729,4.729,0,0,1,3.584,1.684,5.9,5.9,0,0,1,1.421,3.895v5.819A1,1,0,0,1,1030.654,91.843Z" transform="translate(-8.9)" fill="#133483"/>
  </g>
</svg>
